<svg width="40" height="36" viewBox="0 0 40 36" fill="none" xmlns="http://www.w3.org/2000/svg">
<path fill-rule="evenodd" clip-rule="evenodd" d="M4.80001 24.4819H1.68878C1.47588 24.4819 1.2948 24.6366 1.2616 24.8467L0.00326376 32.8248C-0.0217468 32.9823 0.10017 33.1242 0.259855 33.1242H1.74519C1.95809 33.1242 2.13916 32.9695 2.17236 32.759L2.51175 30.6072C2.54449 30.3964 2.72601 30.2419 2.93847 30.2419H3.92338C5.97286 30.2419 7.1556 29.2501 7.46465 27.2848C7.60381 26.425 7.47054 25.7495 7.06781 25.2762C6.6257 24.7568 5.84128 24.4819 4.80001 24.4819ZM5.15896 27.3958C4.98885 28.5122 4.13584 28.5122 3.31106 28.5122H2.84157L3.17094 26.4271C3.19049 26.3013 3.29967 26.2084 3.42706 26.2084H3.64224C4.20407 26.2084 4.73412 26.2084 5.00801 26.5286C5.17117 26.7198 5.22128 27.0036 5.15896 27.3958ZM14.1002 27.36H12.6103C12.4834 27.36 12.3737 27.4528 12.3541 27.5789L12.2882 27.9956L12.184 27.8446C11.8615 27.3764 11.1423 27.22 10.4244 27.22C8.77792 27.22 7.37181 28.4669 7.09791 30.2162C6.9556 31.0886 7.15791 31.9229 7.65286 32.5048C8.10697 33.0398 8.75665 33.2627 9.5295 33.2627C10.856 33.2627 11.5918 32.4097 11.5918 32.4097L11.5253 32.8238C11.5002 32.9821 11.6221 33.124 11.7809 33.124H13.123C13.3365 33.124 13.5165 32.9693 13.5501 32.7587L14.3554 27.6594C14.3809 27.5025 14.2594 27.36 14.1002 27.36ZM12.0234 30.2598C11.8796 31.1109 11.204 31.6823 10.3426 31.6823C9.90992 31.6823 9.56402 31.5436 9.34213 31.2806C9.12192 31.0196 9.03813 30.6478 9.10823 30.2339C9.24255 29.3899 9.9295 28.8 10.7779 28.8C11.2009 28.8 11.5449 28.9404 11.7714 29.2057C11.9983 29.4737 12.0885 29.8476 12.0234 30.2598ZM20.5379 27.3598H22.0352C22.2449 27.3598 22.3672 27.5949 22.2481 27.7669L17.2685 34.9547C17.1878 35.0712 17.055 35.1404 16.9131 35.1404H15.4177C15.2072 35.1404 15.0842 34.9034 15.2061 34.731L16.7567 32.5423L15.1076 27.7027C15.0506 27.5345 15.1748 27.3598 15.3537 27.3598H16.8249C17.016 27.3598 17.1847 27.4853 17.2398 27.6682L18.115 30.5912L20.1801 27.5495C20.2609 27.4307 20.3952 27.3598 20.5379 27.3598Z" fill="#253B80"/>
<path fill-rule="evenodd" clip-rule="evenodd" d="M36.7709 32.8248L38.0478 24.7008C38.0673 24.5747 38.1766 24.4818 38.3035 24.4814H39.741C39.8998 24.4814 40.0216 24.6237 39.9966 24.7812L38.7374 32.7589C38.7046 32.9694 38.5235 33.1242 38.3103 33.1242H37.0265C36.8677 33.1242 36.7459 32.9823 36.7709 32.8248ZM26.9921 24.4818H23.8803C23.6679 24.4818 23.4869 24.6366 23.4536 24.8467L22.1953 32.8248C22.1702 32.9823 22.2921 33.1242 22.4511 33.1242H24.0477C24.1961 33.1242 24.3231 33.016 24.3462 32.8686L24.7033 30.6071C24.7361 30.3964 24.9176 30.2418 25.13 30.2418H26.1145C28.1644 30.2418 29.3469 29.2501 29.6562 27.2848C29.7957 26.425 29.6616 25.7494 29.2591 25.2761C28.8172 24.7568 28.0334 24.4818 26.9921 24.4818ZM27.3511 27.3957C27.1814 28.5122 26.3284 28.5122 25.5031 28.5122H25.034L25.3639 26.4271C25.3835 26.3012 25.4917 26.2084 25.6195 26.2084H25.8347C26.3961 26.2084 26.9267 26.2084 27.2004 26.5286C27.3637 26.7197 27.4134 27.0035 27.3511 27.3957ZM36.2915 27.3599H34.8027C34.6747 27.3599 34.5661 27.4528 34.5469 27.5789L34.481 27.9955L34.3764 27.8446C34.0538 27.3764 33.3351 27.2199 32.6172 27.2199C30.9707 27.2199 29.565 28.4669 29.2911 30.2162C29.1492 31.0886 29.3507 31.9229 29.8456 32.5048C30.3006 33.0397 30.9494 33.2627 31.7223 33.2627C33.0488 33.2627 33.7844 32.4096 33.7844 32.4096L33.7181 32.8237C33.693 32.9821 33.8149 33.124 33.9747 33.124H35.3162C35.5286 33.124 35.7096 32.9692 35.7429 32.7587L36.5486 27.6593C36.5732 27.5025 36.4513 27.3599 36.2915 27.3599ZM34.2149 30.2597C34.072 31.1109 33.3955 31.6823 32.5338 31.6823C32.1021 31.6823 31.7555 31.5435 31.5334 31.2806C31.3132 31.0195 31.2305 30.6477 31.2997 30.2338C31.4347 29.3898 32.1208 28.7999 32.9692 28.7999C33.3924 28.7999 33.7362 28.9404 33.9629 29.2056C34.1907 29.4736 34.2808 29.8475 34.2149 30.2597Z" fill="#179BD7"/>
<path d="M16.314 21.6277L16.6966 19.1983L15.8446 19.1785H11.7761L14.6035 1.2508C14.6121 1.19668 14.6408 1.14621 14.6824 1.11038C14.7241 1.07455 14.7776 1.0548 14.8332 1.0548H21.6932C23.9707 1.0548 25.5423 1.52872 26.3629 2.46411C26.7475 2.90293 26.9926 3.36148 27.1111 3.86611C27.2353 4.39563 27.2376 5.02824 27.1162 5.79982L27.1073 5.85614V6.35052L27.4922 6.56848C27.8162 6.74033 28.0734 6.93707 28.2709 7.16233C28.6002 7.53751 28.813 8.01435 28.9029 8.57968C28.9957 9.16112 28.965 9.85297 28.813 10.6363C28.6374 11.5373 28.3536 12.322 27.9705 12.9642C27.6178 13.5558 27.1688 14.0465 26.6357 14.4269C26.1267 14.7881 25.5218 15.0625 24.838 15.238C24.1753 15.4105 23.4199 15.4976 22.5913 15.4976H22.0574C21.6757 15.4976 21.3048 15.6351 21.0138 15.8816C20.722 16.1332 20.5288 16.4768 20.4696 16.8528L20.4294 17.0715L19.7536 21.3534L19.7229 21.5107C19.7149 21.5606 19.701 21.5854 19.6806 21.6023C19.6622 21.6174 19.6359 21.6277 19.6102 21.6277H16.314Z" fill="#253B80"/>
<path d="M27.8564 5.91341C27.836 6.04432 27.8126 6.17815 27.7863 6.31565C26.8814 10.9605 23.7865 12.5651 19.8334 12.5651H17.8208C17.3374 12.5651 16.93 12.9161 16.8547 13.3929L15.8241 19.9284L15.5323 21.7808C15.4833 22.0939 15.7248 22.3762 16.0406 22.3762H19.6105C20.0332 22.3762 20.3922 22.069 20.4587 21.6522L20.4938 21.4707L21.166 17.2054L21.2092 16.9715C21.2749 16.5532 21.6347 16.2461 22.0574 16.2461H22.5913C26.0498 16.2461 28.7574 14.8419 29.5488 10.7784C29.8793 9.08089 29.7082 7.66354 28.8334 6.6667C28.5688 6.36611 28.2404 6.11672 27.8564 5.91341Z" fill="#179BD7"/>
<path d="M26.9096 5.53635C26.7715 5.49612 26.6288 5.45955 26.4825 5.42664C26.3355 5.39447 26.1848 5.36595 26.0298 5.34108C25.4871 5.25332 24.8926 5.21163 24.2555 5.21163H18.8787C18.7463 5.21163 18.6206 5.24161 18.5079 5.29574C18.2599 5.41494 18.0757 5.64972 18.0311 5.93713L16.8871 13.1819L16.8542 13.3933C16.9296 12.9164 17.337 12.5654 17.8204 12.5654H19.833C23.7861 12.5654 26.8812 10.9601 27.7859 6.31597C27.8128 6.17848 27.8355 6.04464 27.856 5.91374C27.6271 5.79233 27.3791 5.68848 27.1122 5.59997C27.0465 5.57803 26.9785 5.55683 26.9096 5.53635Z" fill="#222D65"/>
<path d="M18.0311 5.93697C18.0758 5.64954 18.2602 5.41478 18.508 5.2963C18.6215 5.24217 18.7465 5.21219 18.8787 5.21219H24.2558C24.8928 5.21219 25.4874 5.25387 26.0299 5.34164C26.185 5.36651 26.3358 5.39503 26.4827 5.4272C26.629 5.46013 26.7716 5.4967 26.9099 5.53691C26.9785 5.55739 27.0465 5.57859 27.1131 5.59981C27.38 5.6883 27.628 5.79289 27.8568 5.91356C28.1261 4.19707 27.8547 3.02837 26.9267 1.9701C25.9036 0.805062 24.0568 0.306282 21.6939 0.306282H14.8337C14.3509 0.306282 13.9393 0.657314 13.8646 1.13489L11.0073 19.2469C10.9509 19.6052 11.2273 19.9285 11.5886 19.9285H15.824L16.8873 13.1817L18.0311 5.93697Z" fill="#253B80"/>
</svg>
